<?xml version="1.0" encoding="UTF-8"?>
<svg width="14px" height="20px" viewBox="0 0 14 20" version="1.1" xmlns="http://www.w3.org/2000/svg" xmlns:xlink="http://www.w3.org/1999/xlink">
    <!-- Generator: Sketch 58 (84663) - https://sketch.com -->
    <title>Location icon</title>
    <desc>Created with Sketch.</desc>
    <g id="Page-1" stroke="none" stroke-width="1" fill="none" fill-rule="evenodd">
        <g id="PBC311---Issues-around-me---detail-display" transform="translate(-63.000000, -489.000000)" fill="#D62727" fill-rule="nonzero">
            <g id="Location-icon" transform="translate(63.000000, 489.000000)">
                <path d="M7.0141034,0 C3.15208695,0 0,3.00813008 0,6.69376694 C0,6.80216802 0,6.93766938 0,7.04607046 L0.0283971798,7.58807588 C0.141985899,8.15718157 0.397560517,9.13279133 0.965504112,10.5149051 C1.8174195,12.5203252 3.54964747,15.7452575 7.04250058,20 C8.68953701,17.8319783 13.4886604,11.2737127 13.9146181,7.83197832 L13.9146181,7.80487805 C13.9714124,7.45257453 13.9998096,7.07317073 13.9998096,6.69376694 C14.0282068,3.00813008 10.8761198,0 7.0141034,0 Z M6.98570622,9.67479675 C5.28187543,9.67479675 3.89041363,8.34688347 3.89041363,6.72086721 C3.89041363,5.09485095 5.28187543,3.76693767 6.98570622,3.76693767 C8.68953701,3.76693767 10.0809988,5.09485095 10.0809988,6.72086721 C10.0809988,8.34688347 8.68953701,9.67479675 6.98570622,9.67479675 Z" id="Shape"></path>
            </g>
        </g>
    </g>
</svg>