<?xml version="1.0" encoding="UTF-8"?>
<svg width="78px" height="78px" viewBox="0 0 78 78" version="1.1" xmlns="http://www.w3.org/2000/svg" xmlns:xlink="http://www.w3.org/1999/xlink">
    <!-- Generator: Sketch 58 (84663) - https://sketch.com -->
    <title>Photo upload icon</title>
    <desc>Created with Sketch.</desc>
    <g id="Page-1" stroke="none" stroke-width="1" fill="none" fill-rule="evenodd" fill-opacity="0.885680726">
        <g id="Report-an-Issue-page" transform="translate(-168.000000, -331.000000)" fill="#747576" fill-rule="nonzero">
            <g id="Photo-upload" transform="translate(12.000000, 187.000000)">
                <g id="Photo-upload-icon" transform="translate(156.000000, 143.000000)">
                    <path d="M38.99896,0.999 C17.4606764,0.999 0,18.460631 0,39.99913 C0,61.537629 17.4606764,78.999 38.99896,78.999 C60.5372436,78.999 78,61.536849 78,39.99913 C78,18.459851 60.5372436,0.999 38.99896,0.999 Z M17.875141,59.999 C16.8390638,59.999 16,59.1604507 16,58.124366 L16,21.8733738 C16,20.8378096 16.8390638,19.999 17.875141,19.999 L59.124859,19.999 C60.1609362,19.999 61,20.8380698 61,21.8733738 L61,41.934274 L58.1905417,41.934274 L56.5907511,41.934274 L56.5907511,24.3408741 L20.366567,24.3408741 L20.366567,48.5518388 L22.4353381,48.5518388 L30.7944849,35.5163266 L36.3808695,44.2266211 L39.1551933,48.552099 L41.5602145,48.552099 L37.58325,42.3509461 L40.1751346,38.3091487 L46.744244,48.5515785 L49.3928644,48.5515785 L49.3928644,50.7312342 L49.3928644,55.0025785 L49.3928644,57.7024888 L52.0927551,57.7024888 L55.4898703,57.7024888 L55.4898703,59.999 L17.875141,59.999 L17.875141,59.999 Z M54,31.999 C54,34.207747 52.208747,35.999 50,35.999 C47.791253,35.999 46,34.207747 46,31.999 C46,29.790253 47.791253,27.999 50,27.999 C52.208747,27.999 54,29.791058 54,31.999 Z M63.0750858,55.0745636 L63.0750858,60.999 L58.9254201,60.999 L58.9254201,59.9303605 L58.9254201,55.0745636 L53,55.0745636 L53,50.9234364 L58.9254201,50.9234364 L58.9254201,44.999 L61.6556962,44.999 L63.0753387,44.999 L63.0753387,50.9234364 L69,50.9234364 L69,55.0745636 L63.0750858,55.0745636 Z" id="Shape"></path>
                </g>
            </g>
        </g>
    </g>
</svg>